<svg width="16" height="16" viewBox="0 0 16 16" fill="none" xmlns="http://www.w3.org/2000/svg">
<path fill-rule="evenodd" clip-rule="evenodd" d="M8 13.6C11.0928 13.6 13.6 11.0928 13.6 8C13.6 4.90721 11.0928 2.4 8 2.4C4.90721 2.4 2.4 4.90721 2.4 8C2.4 11.0928 4.90721 13.6 8 13.6ZM8 15C11.866 15 15 11.866 15 8C15 4.13401 11.866 1 8 1C4.13401 1 1 4.13401 1 8C1 11.866 4.13401 15 8 15Z" fill="#E9000E"/>
<path d="M5 11C5 9.34315 6.34315 8 8 8C9.65685 8 11 9.34315 11 11H5Z" fill="#E9000E"/>
<circle cx="6" cy="6" r="1" fill="#E9000E"/>
<circle cx="10" cy="6" r="1" fill="#E9000E"/>
</svg>
